<?xml version="1.0" standalone="no"?>
<!DOCTYPE svg PUBLIC "-//W3C//DTD SVG 20010904//EN"
 "http://www.w3.org/TR/2001/REC-SVG-20010904/DTD/svg10.dtd">
<svg version="1.0" xmlns="http://www.w3.org/2000/svg"
 width="534.000000pt" height="446.000000pt" viewBox="0 0 534.000000 446.000000"
 preserveAspectRatio="xMidYMid meet">
<metadata>
Created by potrace 1.16, written by Peter Selinger 2001-2019
</metadata>
<g transform="translate(0.000000,446.000000) scale(0.100000,-0.100000)"
fill="#000000" stroke="none">
<path d="M2121 4099 c-90 -18 -124 -45 -377 -299 l-248 -249 -425 -3 c-468 -4
-455 -3 -551 -69 -56 -39 -105 -101 -137 -174 -17 -38 -18 -110 -18 -1240 l0
-1200 37 -70 c59 -115 147 -183 263 -204 83 -15 3907 -15 3990 0 116 21 204
89 263 204 l37 70 0 1200 c0 1130 -1 1202 -18 1240 -32 73 -81 135 -137 174
-96 66 -84 65 -542 69 l-417 3 -253 253 c-229 229 -259 256 -313 277 l-60 24
-525 2 c-289 1 -545 -3 -569 -8z m2461 -861 c57 -32 82 -77 76 -139 -12 -118
-149 -177 -238 -102 -76 64 -80 153 -8 220 50 47 110 54 170 21z m-1659 -102
c172 -44 356 -158 488 -301 185 -201 289 -508 260 -770 -18 -159 -81 -332
-168 -463 -91 -137 -286 -306 -412 -360 -317 -133 -567 -131 -871 6 -186 84
-404 309 -483 499 -106 251 -120 469 -46 701 86 267 247 465 489 600 164 91
305 124 510 118 103 -3 158 -10 233 -30z"/>
<path d="M2505 2915 c-279 -50 -500 -256 -591 -550 -29 -95 -27 -325 5 -425
77 -247 248 -426 486 -509 89 -32 113 -36 226 -39 105 -3 141 0 210 17 276 70
474 258 560 531 21 65 24 95 24 220 -1 111 -5 159 -19 205 -123 402 -488 625
-901 550z"/>
</g>
</svg>
