<?xml version="1.0" standalone="no"?>
<!DOCTYPE svg PUBLIC "-//W3C//DTD SVG 20010904//EN"
 "http://www.w3.org/TR/2001/REC-SVG-20010904/DTD/svg10.dtd">
<svg version="1.0" xmlns="http://www.w3.org/2000/svg"
 width="123.000000pt" height="172.000000pt" viewBox="0 0 123.000000 172.000000"
 preserveAspectRatio="xMidYMid meet">
<metadata>
Created by potrace 1.16, written by Peter Selinger 2001-2019
</metadata>
<g transform="translate(0.000000,172.000000) scale(0.100000,-0.100000)"
fill="#000000" stroke="none">
<path d="M545 1709 c-229 -29 -411 -186 -481 -417 -28 -90 -25 -118 13 -133
40 -15 56 3 86 98 46 146 128 246 254 305 227 107 502 11 612 -214 44 -90 53
-151 45 -314 -7 -151 -4 -165 44 -216 45 -48 112 -32 112 26 0 8 -12 27 -27
41 -27 24 -28 27 -23 117 3 51 4 120 4 154 -6 332 -310 595 -639 553z"/>
<path d="M483 1521 c-133 -49 -221 -151 -259 -304 -30 -116 -49 -136 -144
-146 -48 -5 -56 -9 -64 -33 -15 -44 14 -68 82 -68 112 0 185 62 218 187 36
138 83 206 170 249 146 71 329 2 395 -150 21 -47 23 -67 23 -246 1 -181 3
-198 23 -236 31 -57 104 -119 171 -144 65 -25 99 -20 108 14 11 44 -3 62 -65
85 -61 22 -106 59 -124 101 -6 14 -11 108 -11 220 -1 195 -1 195 -30 253 -43
87 -116 161 -194 199 -58 27 -80 32 -157 35 -69 2 -102 -2 -142 -16z"/>
<path d="M525 1351 c-77 -35 -115 -88 -135 -186 -34 -168 -114 -244 -283 -267
-45 -7 -88 -16 -94 -21 -16 -12 -17 -59 -1 -75 19 -19 129 -14 200 8 149 46
247 159 278 320 18 97 61 136 137 127 37 -4 54 -12 75 -36 24 -27 28 -39 28
-94 -1 -150 -51 -280 -145 -372 -75 -74 -154 -114 -306 -155 -63 -18 -138 -38
-166 -46 -56 -15 -79 -40 -68 -74 13 -42 39 -44 168 -10 252 65 350 112 452
215 85 85 129 170 156 299 42 205 11 302 -116 362 -60 29 -125 31 -180 5z"/>
<path d="M580 1180 c-12 -12 -20 -33 -20 -52 0 -90 -47 -194 -117 -259 -60
-56 -135 -92 -250 -120 -48 -12 -105 -26 -125 -31 -59 -14 -75 -73 -28 -98 35
-19 254 37 364 92 122 62 221 187 245 311 21 111 21 125 0 152 -25 30 -42 32
-69 5z"/>
<path d="M790 695 c-7 -8 -12 -27 -12 -42 0 -57 148 -156 296 -198 73 -21 106
-11 106 33 0 35 -23 57 -70 67 -60 12 -173 70 -222 114 -49 43 -77 51 -98 26z"/>
<path d="M545 490 c-106 -35 -324 -95 -377 -104 -21 -4 -44 -14 -53 -22 -22
-23 -19 -61 8 -78 21 -14 35 -12 157 18 74 19 194 52 266 75 72 23 142 41 156
41 13 0 74 -25 135 -55 62 -31 142 -65 179 -75 61 -18 70 -18 91 -5 27 18 30
56 6 77 -10 9 -44 23 -75 32 -32 9 -108 41 -169 71 -137 67 -183 71 -324 25z"/>
<path d="M615 333 c-11 -2 -81 -22 -155 -43 -74 -21 -159 -43 -188 -50 -68
-16 -93 -47 -68 -85 23 -35 49 -33 259 26 100 28 200 51 222 51 27 0 77 -16
154 -51 131 -60 169 -64 185 -18 7 18 7 33 1 43 -6 8 -68 40 -140 71 -102 44
-143 57 -190 59 -33 1 -69 0 -80 -3z"/>
<path d="M585 154 c-5 -2 -59 -15 -120 -29 -134 -30 -163 -57 -114 -106 24
-24 27 -24 207 18 l113 25 90 -32 c87 -31 91 -31 110 -14 13 12 19 28 17 48
-3 27 -10 33 -83 63 -63 26 -94 32 -145 32 -36 0 -69 -2 -75 -5z"/>
</g>
</svg>
