<?xml version="1.0" standalone="no"?>
<!DOCTYPE svg PUBLIC "-//W3C//DTD SVG 20010904//EN"
 "http://www.w3.org/TR/2001/REC-SVG-20010904/DTD/svg10.dtd">
<svg version="1.0" xmlns="http://www.w3.org/2000/svg"
 width="191.000000pt" height="191.000000pt" viewBox="0 0 191.000000 191.000000"
 preserveAspectRatio="xMidYMid meet">
<metadata>
Created by potrace 1.16, written by Peter Selinger 2001-2019
</metadata>
<g transform="translate(0.000000,191.000000) scale(0.100000,-0.100000)"
fill="#000000" stroke="none">
<path d="M752 1900 c-181 -38 -371 -146 -502 -287 -114 -121 -203 -290 -236
-442 -18 -88 -18 -345 0 -432 74 -347 378 -651 723 -724 90 -19 346 -19 436 0
345 73 649 377 723 724 18 88 18 344 -1 434 -18 88 -76 223 -133 312 -49 77
-181 214 -253 263 -67 45 -171 96 -264 128 -75 26 -93 28 -265 30 -102 2 -204
-1 -228 -6z m380 -140 c293 -74 512 -274 610 -560 31 -90 32 -102 33 -245 0
-144 -1 -154 -33 -245 -35 -102 -100 -218 -162 -289 l-38 -43 -36 77 c-44 90
-145 203 -229 253 -31 18 -88 45 -129 59 -63 23 -90 26 -193 27 -87 0 -136 -5
-180 -18 -173 -52 -303 -161 -386 -325 l-32 -64 -28 34 c-89 105 -154 238
-185 377 -26 117 -16 281 25 402 80 236 255 426 477 517 45 18 110 39 145 47
96 21 249 19 341 -4z"/>
<path d="M831 1596 c-101 -33 -201 -132 -231 -229 -8 -24 -11 -78 -8 -140 3
-89 7 -109 33 -155 80 -147 250 -220 415 -178 111 29 183 86 238 190 25 46 27
61 27 161 0 101 -2 114 -29 167 -35 70 -94 128 -165 164 -45 22 -71 28 -145
30 -61 3 -106 -1 -135 -10z"/>
</g>
</svg>
